name Run_300 02_newCOP3_v24.mot
datacolumns 19
datarows 143
range 2.75 2.892
DataType=double
version=3
OpenSimVersion=4.3-2021-08-27-4bc7ad9
endheader
time	R_ground_force_vx	R_ground_force_vy	R_ground_force_vz	R_ground_force_px	R_ground_force_py	R_ground_force_pz	L_ground_force_vx	L_ground_force_vy	L_ground_force_vz	L_ground_force_px	L_ground_force_py	L_ground_force_pz	R_ground_torque_x	R_ground_torque_y	R_ground_torque_z	L_ground_torque_x	L_ground_torque_y	L_ground_torque_z
2.75	0	0	0	0	0	0	0	0	0	0	0	0	0	0	0	0	0	0
2.751	0	0	0	0	0	0	0	0	0	0	0	0	0	0	0	0	0	0
2.752	0	0	0	0	0	0	0	0	0	0	0	0	0	0	0	0	0	0
2.753	0	0	0	0	0	0	0	0	0	0	0	0	0	0	0	0	0	0
2.754	0	0	0	0	0	0	0	0	0	0	0	0	0	0	0	0	0	0
2.755	0	0	0	0	0	0	0	0	0	0	0	0	0	0	0	0	0	0
2.756	0	0	0	0	0	0	0	0	0	0	0	0	0	0	0	0	0	0
2.757	0	0	0	0	0	0	0	0	0	0	0	0	0	0	0	0	0	0
2.758	0	0	0	0	0	0	0	0	0	0	0	0	0	0	0	0	0	0
2.759	0	0	0	0	0	0	0	0	0	0	0	0	0	0	0	0	0	0
2.76	0	0	0	0	0	0	0	0	0	0	0	0	0	0	0	0	0	0
2.761	0	0	0	0	0	0	0	0	0	0	0	0	0	0	0	0	0	0
2.762	0	0	0	0	0	0	0	0	0	0	0	0	0	0	0	0	0	0
2.763	0	0	0	0	0	0	0	0	0	0	0	0	0	0	0	0	0	0
2.764	0	0	0	0	0	0	0	0	0	0	0	0	0	0	0	0	0	0
2.765	0	0	0	0	0	0	0	0	0	0	0	0	0	0	0	0	0	0
2.766	0	0	0	0	0	0	0	0	0	0	0	0	0	0	0	0	0	0
2.767	0	0	0	0	0	0	0	0	0	0	0	0	0	0	0	0	0	0
2.768	0	0	0	0	0	0	0	0	0	0	0	0	0	0	0	0	0	0
2.769	0	0	0	0	0	0	0	0	0	0	0	0	0	0	0	0	0	0
2.77	0	0	0	0	0	0	0	0	0	0	0	0	0	0	0	0	0	0
2.771	0	0	0	0	0	0	0	0	0	0	0	0	0	0	0	0	0	0
2.772	0	0	0	0	0	0	0	0	0	0	0	0	0	0	0	0	0	0
2.773	0	0	0	0	0	0	0	0	0	0	0	0	0	0	0	0	0	0
2.774	0	0	0	0	0	0	0	0	0	0	0	0	0	0	0	0	0	0
2.775	0	0	0	0	0	0	0	0	0	0	0	0	0	0	0	0	0	0
2.776	0	0	0	0	0	0	0	0	0	0	0	0	0	0	0	0	0	0
2.777	0	0	0	0	0	0	0	0	0	0	0	0	0	0	0	0	0	0
2.778	0	0	0	0	0	0	0	0	0	0	0	0	0	0	0	0	0	0
2.779	0	0	0	0	0	0	0	0	0	0	0	0	0	0	0	0	0	0
2.78	0	0	0	0	0	0	0	0	0	0	0	0	0	0	0	0	0	0
2.781	0	0	0	0	0	0	0	0	0	0	0	0	0	0	0	0	0	0
2.782	0	0	0	0	0	0	0	0	0	0	0	0	0	0	0	0	0	0
2.783	0	0	0	0	0	0	0	0	0	0	0	0	0	0	0	0	0	0
2.784	0	0	0	0	0	0	0	0	0	0	0	0	0	0	0	0	0	0
2.785	0	0	0	0	0	0	0	0	0	0	0	0	0	0	0	0	0	0
2.786	0	0	0	0	0	0	0	0	0	0	0	0	0	0	0	0	0	0
2.787	0	0	0	0	0	0	0	0	0	0	0	0	0	0	0	0	0	0
2.788	0	0	0	0	0	0	0	0	0	0	0	0	0	0	0	0	0	0
2.789	0	0	0	0	0	0	0	0	0	0	0	0	0	0	0	0	0	0
2.79	0	0	0	0	0	0	0	0	0	0	0	0	0	0	0	0	0	0
2.791	0	0	0	0	0	0	0	0	0	0	0	0	0	0	0	0	0	0
2.792	0	0	0	0	0	0	0	0	0	0	0	0	0	0	0	0	0	0
2.793	0	0	0	0	0	0	0	0	0	0	0	0	0	0	0	0	0	0
2.794	0	0	0	0	0	0	0	0	0	0	0	0	0	0	0	0	0	0
2.795	0	0	0	0	0	0	0	0	0	0	0	0	0	0	0	0	0	0
2.796	0	0	0	0	0	0	0	0	0	0	0	0	0	0	0	0	0	0
2.797	0	0	0	0	0	0	-14.299838	50.974434	-2.912926	0.870191	0	-0.296948	0	0	0	-0	2.00438	-0
2.798	0	0	0	0	0	0	-15.062352	56.70351	-3.261532	0.895891	0	-0.326381	0	0	0	-0	1.792738	-0
2.799	0	0	0	0	0	0	-15.755225	62.976044	-3.62446	0.904806	0	-0.337096	0	0	0	-0	1.578218	-0
2.8	0	0	0	0	0	0	-16.361979	69.826973	-3.998218	0.9090009999999999	0	-0.34253	0	0	0	-0	1.363199	-0
2.801	0	0	0	0	0	0	-16.866449	77.29106899999999	-4.378684	0.91123	0	-0.345752	0	0	0	-0	1.149968	-0
2.802	0	0	0	0	0	0	-17.253237	85.402534	-4.761137	0.912465	0	-0.347844	0	0	0	-0	0.940696	-0
2.803	0	0	0	0	0	0	-17.508165	94.19455000000001	-5.14029	0.913135	0	-0.349284	0	0	0	-0	0.737409	-0
2.804	0	0	0	0	0	0	-17.618771	103.698799	-5.510358	0.91346	0	-0.350318	0	0	0	-0	0.54197	-0
2.805	0	0	0	0	0	0	-17.574762	113.944923	-5.865138	0.913562	0	-0.351082	0	0	0	-0	0.356053	-0
2.806	0	0	0	0	0	0	-17.368504	124.959984	-6.198111	0.9135180000000001	0	-0.35166	0	0	0	-0	0.181137	-0
2.807	0	0	0	0	0	0	-16.995441	136.767914	-6.502574	0.913372	0	-0.352104	0	0	0	-0	0.018487	-0
2.808	0	0	0	0	0	0	-16.454504	149.388885	-6.77178	0.9131590000000001	0	-0.352452	0	0	0	0	-0.130848	0
2.809	0	0	0	0	0	0	-15.748441	162.83876	-6.999096	0.912899	0	-0.352726	0	0	0	0	-0.26604	0
2.81	0	0	0	0	0	0	-14.884108	177.12854	-7.178169	0.9126069999999999	0	-0.352945	0	0	0	0	-0.386481	0
2.811	0	0	0	0	0	0	-13.872659	192.263809	-7.303097	0.912296	0	-0.353122	0	0	0	0	-0.491783	0
2.812	0	0	0	0	0	0	-12.729655	208.244217	-7.368591	0.911974	0	-0.353266	0	0	0	0	-0.581768	0
2.813	0	0	0	0	0	0	-11.475071	225.063095	-7.370129	0.911647	0	-0.353385	0	0	0	0	-0.656462	0
2.814	0	0	0	0	0	0	-10.133191	242.707047	-7.304085	0.911319	0	-0.353483	0	0	0	0	-0.716081	0
2.815	0	0	0	0	0	0	-8.732398999999999	261.15564	-7.167835	0.910996	0	-0.353567	0	0	0	0	-0.7610209999999999	0
2.816	0	0	0	0	0	0	-7.304846	280.381165	-6.95983	0.910679	0	-0.353639	0	0	0	0	-0.79184	0
2.817	0	0	0	0	0	0	-5.886011	300.348663	-6.679623	0.910372	0	-0.353702	0	0	0	0	-0.809246	0
2.818	0	0	0	0	0	0	-4.514154	321.015717	-6.327868	0.910075	0	-0.353759	0	0	0	0	-0.814072	0
2.819	0	0	0	0	0	0	-3.229668	342.332733	-5.906275	0.909791	0	-0.353811	0	0	0	0	-0.807269	0
2.82	0	0	0	0	0	0	-2.074358	364.243134	-5.417523	0.90952	0	-0.353861	0	0	0	0	-0.789878	0
2.821	0	0	0	0	0	0	-1.090645	386.683685	-4.865149	0.909262	0	-0.353908	0	0	0	0	-0.763015	0
2.822	0	0	0	0	0	0	-0.320741	409.585114	-4.25341	0.909019	0	-0.353956	0	0	0	0	-0.727854	0
2.823	0	0	0	0	0	0	0.194206	432.872742	-3.587133	0.90879	0	-0.354004	0	0	0	0	-0.685609	0
2.824	0	0	0	0	0	0	0.414956	456.467285	-2.871553	0.9085760000000001	0	-0.354053	0	0	0	0	-0.637513	0
2.825	0	0	0	0	0	0	0.304986	480.285767	-2.112169	0.908374	0	-0.354105	0	0	0	0	-0.584806	0
2.826	0	0	0	0	0	0	-0.168751	504.242737	-1.314599	0.908186	0	-0.354159	0	0	0	0	-0.528718	0
2.827	0	0	0	0	0	0	-1.035148	528.25116	-0.484475	0.908009	0	-0.354217	0	0	0	0	-0.470452	0
2.828	0	0	0	0	0	0	-2.318361	552.223877	0.372644	0.907843	0	-0.354278	0	0	0	0	-0.411174	0
2.829	0	0	0	0	0	0	-4.037335	576.07489	1.251327	0.907686	0	-0.354343	0	0	0	0	-0.352002	0
2.83	0	0	0	0	0	0	-6.205444	599.720337	2.146288	0.907536	0	-0.354413	0	0	0	0	-0.29399	0
2.831	0	0	0	0	0	0	-8.830253000000001	623.080078	3.052376	0.907392	0	-0.354487	0	0	0	0	-0.238125	0
2.832	0	0	0	0	0	0	-11.913404	646.078796	3.964543	0.907251	0	-0.354565	0	0	0	0	-0.185315	0
2.833	0	0	0	0	0	0	-15.450604	668.647034	4.877791	0.907111	0	-0.354649	0	0	0	0	-0.136388	0
2.834	0	0	0	0	0	0	-19.431738	690.722168	5.787112	0.9069700000000001	0	-0.354737	0	0	0	0	-0.09208	0
2.835	0	0	0	0	0	0	-23.841051	712.2493899999999	6.68743	0.906824	0	-0.354831	0	0	0	0	-0.053037	0
2.836	0	0	0	0	0	0	-28.657436	733.1824339999999	7.573553	0.906671	0	-0.354928	0	0	0	0	-0.019811	0
2.837	0	0	0	0	0	0	-33.85479	753.4839480000001	8.440139	0.906508	0	-0.355031	0	0	0	-0	0.00714	-0
2.838	0	0	0	0	0	0	-39.402412	773.126343	9.281704	0.906331	0	-0.355138	0	0	0	-0	0.027452	-0
2.839	0	0	0	0	0	0	-45.265484	792.091492	10.092644	0.9061360000000001	0	-0.35525	0	0	0	-0	0.040853	-0
2.84	0	0	0	0	0	0	-51.405571	810.37146	10.867304	0.905921	0	-0.355366	0	0	0	-0	0.047162	-0
2.841	0	0	0	0	0	0	-57.78117	827.968018	11.600079	0.905682	0	-0.355485	0	0	0	-0	0.046285	-0
2.842	0	0	0	0	0	0	-64.348274	844.892761	12.285547	0.905415	0	-0.355608	0	0	0	-0	0.038209	-0
2.843	0	0	0	0	0	0	-71.06096599999999	861.166565	12.918636	0.905115	0	-0.355734	0	0	0	-0	0.022997	-0
2.844	0	0	0	0	0	0	-77.87204	876.819397	13.494806	0.90478	0	-0.355862	0	0	0	-0	0.000787	-0
2.845	0	0	0	0	0	0	-84.73361199999999	891.8893430000001	14.010252	0.904405	0	-0.355993	0	0	0	0	-0.02822	0
2.846	0	0	0	0	0	0	-91.597717	906.42218	14.462112	0.903987	0	-0.356125	0	0	0	0	-0.063764	0
2.847	0	0	0	0	0	0	-98.41693100000001	920.470154	14.848669	0.903521	0	-0.356259	0	0	0	0	-0.10553	0
2.848	0	0	0	0	0	0	-105.144943	934.091187	15.169537	0.9030049999999999	0	-0.356393	0	0	0	0	-0.15316	0
2.849	0	0	0	0	0	0	-111.737083	947.347656	15.425827	0.902435	0	-0.356527	0	0	0	0	-0.206257	0
2.85	0	0	0	0	0	0	-118.150826	960.304871	15.62028	0.901807	0	-0.356661	0	0	0	0	-0.264392	0
2.851	0	0	0	0	0	0	-124.346245	973.030212	15.757357	0.901119	0	-0.356793	0	0	0	0	-0.327111	0
2.852	0	0	0	0	0	0	-130.286392	985.5914309999999	15.843273	0.900367	0	-0.356924	0	0	0	0	-0.393942	0
2.853	0	0	0	0	0	0	-135.937607	998.055298	15.885999	0.899551	0	-0.357052	0	0	0	0	-0.464401	0
2.854	0	0	0	0	0	0	-141.269821	1010.486389	15.89518	0.898667	0	-0.357177	0	0	0	0	-0.537999	0
2.855	0	0	0	0	0	0	-146.256714	1022.94574	15.882016	0.897713	0	-0.357298	0	0	0	0	-0.614246	0
2.856	0	0	0	0	0	0	-150.875916	1035.489746	15.859076	0.89669	0	-0.357416	0	0	0	0	-0.692657	0
2.857	0	0	0	0	0	0	-155.109131	1048.169189	15.840062	0.895595	0	-0.357529	0	0	0	0	-0.7727579999999999	0
2.858	0	0	0	0	0	0	-158.942139	1061.028076	15.839515	0.8944299999999999	0	-0.357636	0	0	0	0	-0.854087	0
2.859	0	0	0	0	0	0	-162.364929	1074.103271	15.872498	0.893192	0	-0.357739	0	0	0	0	-0.936202	0
2.86	0	0	0	0	0	0	-165.371582	1087.423828	15.954226	0.891884	0	-0.357835	0	0	0	0	-1.01868	0
2.861	0	0	0	0	0	0	-167.960342	1101.010864	16.099695	0.890507	0	-0.357926	0	0	0	0	-1.101122	0
2.862	0	0	0	0	0	0	-170.133453	1114.876953	16.323278	0.889061	0	-0.35801	0	0	0	0	-1.183155	0
2.863	0	0	0	0	0	0	-171.897049	1129.026489	16.63835	0.887548	0	-0.358087	0	0	0	0	-1.264433	0
2.864	0	0	0	0	0	0	-173.260956	1143.455933	17.056902	0.885971	0	-0.358158	0	0	0	0	-1.344639	0
2.865	0	0	0	0	0	0	-174.238464	1158.153931	17.589211	0.884333	0	-0.358222	0	0	0	0	-1.423482	0
2.866	0	0	0	0	0	0	-174.846008	1173.101563	18.243526	0.8826349999999999	0	-0.35828	0	0	0	0	-1.500703	0
2.867	0	0	0	0	0	0	-175.102737	1188.27356	19.025822	0.880881	0	-0.358332	0	0	0	0	-1.57607	0
2.868	0	0	0	0	0	0	-175.030167	1203.638306	19.939594	0.8790750000000001	0	-0.358377	0	0	0	0	-1.649381	0
2.869	0	0	0	0	0	0	-174.651672	1219.158936	20.985739	0.87722	0	-0.358417	0	0	0	0	-1.720459	0
2.87	0	0	0	0	0	0	-173.991959	1234.793823	22.162481	0.875319	0	-0.35845	0	0	0	0	-1.789155	0
2.871	0	0	0	0	0	0	-173.076538	1250.498047	23.465387	0.873376	0	-0.358479	0	0	0	0	-1.855343	0
2.872	0	0	0	0	0	0	-171.931183	1266.223389	24.887438	0.871395	0	-0.358503	0	0	0	0	-1.918922	0
2.873	0	0	0	0	0	0	-170.581467	1281.920044	26.419159	0.86938	0	-0.358522	0	0	0	0	-1.979811	0
2.874	0	0	0	0	0	0	-169.052185	1297.536987	28.048824	0.867334	0	-0.358538	0	0	0	0	-2.037951	0
2.875	0	0	0	0	0	0	-167.36705	1313.023071	29.762699	0.8652609999999999	0	-0.35855	0	0	0	0	-2.093298	0
2.876	0	0	0	0	0	0	-165.548218	1328.327759	31.54533	0.863164	0	-0.358559	0	0	0	0	-2.145828	0
2.877	0	0	0	0	0	0	-163.616058	1343.401733	33.379868	0.861048	0	-0.358566	0	0	0	0	-2.195528	0
2.878	0	0	0	0	0	0	-161.588959	1358.19812	35.248409	0.858914	0	-0.358571	0	0	0	0	-2.242401	0
2.879	0	0	0	0	0	0	-159.483215	1372.672241	37.132385	0.8567669999999999	0	-0.358575	0	0	0	0	-2.286461	0
2.88	0	0	0	0	0	0	-157.312958	1386.782837	39.012897	0.854609	0	-0.358577	0	0	0	0	-2.327732	0
2.881	0	0	0	0	0	0	-155.090271	1400.492188	40.871128	0.852443	0	-0.35858	0	0	0	0	-2.366245	0
2.882	0	0	0	0	0	0	-152.825272	1413.766113	42.688679	0.850272	0	-0.358582	0	0	0	0	-2.402043	0
2.883	0	0	0	0	0	0	-150.526306	1426.574707	44.447929	0.848097	0	-0.358585	0	0	0	0	-2.435174	0
2.884	0	0	0	0	0	0	-148.20015	1438.892212	46.132381	0.84592	0	-0.358589	0	0	0	0	-2.465692	0
2.885	0	0	0	0	0	0	-145.852219	1450.696777	47.726944	0.843744	0	-0.358594	0	0	0	0	-2.493657	0
2.886	0	0	0	0	0	0	-143.486862	1461.970947	49.218231	0.84157	0	-0.358601	0	0	0	0	-2.519135	0
2.887	0	0	0	0	0	0	-141.107605	1472.701172	50.594799	0.8394	0	-0.358609	0	0	0	0	-2.542195	0
2.888	0	0	0	0	0	0	-138.7173	1482.877808	51.847347	0.837234	0	-0.35862	0	0	0	0	-2.562913	0
2.889	0	0	0	0	0	0	-136.31839	1492.494751	52.968903	0.835075	0	-0.358632	0	0	0	0	-2.581368	0
2.89	0	0	0	0	0	0	-133.912964	1501.549561	53.954948	0.832921	0	-0.358647	0	0	0	0	-2.597644	0
2.891	0	0	0	0	0	0	-131.50293	1510.042969	54.803482	0.830776	0	-0.358664	0	0	0	0	-2.611829	0
2.892	0	0	0	0	0	0	-129.090027	1517.97876	55.515064	0.828637	0	-0.358684	0	0	0	0	-2.624014	0
